<svg width="277" height="296" viewBox="0 0 277 296" fill="none" xmlns="http://www.w3.org/2000/svg">
<path d="M0 67C0 29.9969 29.9969 0 67 0H209C246.003 0 276 29.9969 276 67V214C276 251.003 246.003 281 209 281H67C29.9969 281 0 251.003 0 214V67Z" fill="#181717"/>
<path d="M154.68 183.675V179.252H100.209C97.6485 179.252 95.5535 175.993 95.5535 173.898V141.775C95.5535 141.076 96.0191 139.912 96.4846 139.214L144.205 62.8622C144.903 62.1639 146.067 61 147.231 61H181.682C184.01 61 186.105 64.4917 186.105 66.3539V145.732H195.416C197.744 146.43 199.839 148.525 199.839 151.086V174.131C199.839 176.459 197.511 179.252 195.183 179.252H186.105V183.908C189.597 184.606 195.183 185.77 195.183 190.426V213.238C195.183 215.566 192.856 218.825 190.295 218.825H150.49C147.696 218.825 145.834 215.1 145.834 212.54V191.357C145.834 190.193 146.532 189.029 146.532 188.331L135.359 196.711V196.012H132.333L149.326 183.209H151.188V184.606C151.653 184.606 153.749 184.141 154.68 183.675V183.675ZM121.159 85.4419L124.418 80.088C124.884 79.8552 127.444 77.7602 127.91 77.7602H131.402L121.159 85.4419ZM113.943 96.8481L116.736 92.4253L131.169 81.4846L128.375 86.1402L113.943 97.0809V96.8481ZM106.261 108.953L109.52 104.064L123.953 93.1236L120.694 98.2448L106.261 109.185V108.953ZM154.68 104.297L149.791 112.444C149.791 112.212 150.722 111.746 150.955 111.513V114.307L146.3 117.798L142.11 124.549L150.955 117.798V120.592L138.618 129.903L128.608 145.732H139.549L150.955 137.119V139.912L143.273 145.732H148.162C148.395 145.499 150.49 143.87 150.722 143.87C151.188 143.637 150.955 143.637 151.188 143.637V145.732H154.68V104.297V104.297ZM101.839 116.169L116.504 105.228L113.245 110.582L98.5797 121.29L101.839 116.169ZM94.3896 128.273L108.822 117.333C108.822 117.566 108.822 117.566 108.589 117.566L105.563 122.687L91.1307 133.395L94.3896 128.273ZM135.359 138.981V136.188L150.722 124.549L150.955 124.316V127.11L135.359 138.981ZM141.877 124.782C142.11 124.782 142.11 124.549 141.877 124.549V124.782ZM83.449 145.499L86.7079 140.378L101.14 129.437V129.67L97.8813 134.791L83.449 145.499ZM135.359 145.266V142.473L150.955 130.834V133.627L135.359 145.266ZM76.9311 155.974L79.0261 152.483L93.6913 141.542C93.4585 142.007 92.5274 143.404 92.5274 143.637C92.0618 144.335 91.829 145.034 91.829 145.732L76.2328 157.371C76.2328 156.905 76.6983 156.207 76.9311 155.974V155.974ZM76 161.328L91.829 149.456V152.25L76 164.122V161.328ZM76 167.613L91.829 155.974V158.768L76 170.407V167.613ZM76 176.924V174.131L91.829 162.259V165.053L76 176.924ZM76 180.416L91.829 168.777V171.57L76 183.209V180.416ZM76 186.934L91.829 175.062V177.856L76 189.727V186.934ZM76.6983 192.986L92.5274 180.882C92.7602 180.882 94.1568 182.278 94.3896 182.511L77.8622 194.848C77.8622 194.848 76.6983 193.219 76.6983 192.986V192.986ZM80.8884 196.012L98.1141 183.209H101.606L84.3801 196.012H80.8884V196.012ZM89.2685 196.012L106.494 183.209H110.219L92.9929 196.012H89.2685ZM97.8813 196.012L115.107 183.209H118.832L101.606 196.012H97.8813ZM110.219 196.012H106.494L123.487 183.209H127.444L110.219 196.012ZM118.832 196.012H115.107L132.1 183.209H135.824L118.832 196.012ZM123.72 196.012L140.713 183.209H144.437L127.444 196.012H123.72ZM146.532 188.331V188.098V188.331ZM135.359 200.668V200.202L142.11 195.081V197.875L126.28 209.746V208.582V207.419L126.513 206.953L134.195 200.901C134.661 200.668 134.661 200.668 135.359 200.668V200.668ZM126.28 213.238L142.11 201.599V204.392L126.28 216.264V213.238V213.238ZM126.28 219.756L142.11 207.884V210.678L126.28 222.549V219.756V219.756ZM126.28 229.067V226.274L142.11 214.402V217.195L126.28 229.067ZM126.979 232.326L143.041 219.989C143.506 220.687 143.972 221.385 144.437 221.851L128.143 234.188C128.143 234.188 127.91 233.723 127.677 233.723C127.677 233.49 127.444 233.024 127.444 233.024C127.212 232.792 126.979 232.326 126.979 232.326ZM131.169 235.585V235.352L148.162 222.782H151.653L134.428 235.585H131.169V235.585ZM143.041 235.585H139.316L156.542 222.782H160.266L143.041 235.585ZM147.929 235.585L164.922 222.782H168.646L151.653 235.585H147.929ZM156.542 235.585L173.535 222.782H175.63V223.946L160.266 235.585H156.542V235.585ZM168.879 235.585H165.155L175.63 227.67C175.63 227.903 175.63 230.464 175.397 230.464L168.879 235.585Z" fill="url(#paint0_linear_56_60)"/>
<defs>
<linearGradient id="paint0_linear_56_60" x1="76" y1="61" x2="199.839" y2="61" gradientUnits="userSpaceOnUse">
<stop stop-color="#7D141D"/>
<stop offset="1" stop-color="#FF1E27"/>
</linearGradient>
</defs>
</svg>
