<svg width="277" height="289" viewBox="0 0 277 289" fill="none" xmlns="http://www.w3.org/2000/svg">
<g clip-path="url(#clip0_59_94)">
<path d="M60 20H217V223H60V20ZM64 24V219H213V24H64Z" fill="url(#paint0_linear_59_94)"/>
<path d="M155.68 156.675V152.252H101.209C98.6485 152.252 96.5535 148.993 96.5535 146.898V114.775C96.5535 114.076 97.0191 112.912 97.4846 112.214L145.205 35.8622C145.903 35.1639 147.067 34 148.231 34H182.682C185.01 34 187.105 37.4917 187.105 39.3539V118.732H196.416C198.744 119.43 200.839 121.525 200.839 124.086V147.131C200.839 149.459 198.511 152.252 196.183 152.252H187.105V156.908C190.597 157.606 196.183 158.77 196.183 163.426V186.238C196.183 188.566 193.856 191.825 191.295 191.825H151.49C148.696 191.825 146.834 188.1 146.834 185.54V164.357C146.834 163.193 147.532 162.029 147.532 161.331L136.359 169.711V169.012H133.333L150.326 156.209H152.188V157.606C152.653 157.606 154.749 157.141 155.68 156.675V156.675ZM122.159 58.4419L125.418 53.088C125.884 52.8552 128.444 50.7602 128.91 50.7602H132.402L122.159 58.4419ZM114.943 69.8481L117.736 65.4253L132.169 54.4846L129.375 59.1402L114.943 70.0809V69.8481ZM107.261 81.9527L110.52 77.0643L124.953 66.1236L121.694 71.2448L107.261 82.1855V81.9527ZM155.68 77.2971L150.791 85.4444C150.791 85.2116 151.722 84.746 151.955 84.5133V87.3066L147.3 90.7983L143.11 97.5489L151.955 90.7983V93.5917L139.618 102.903L129.608 118.732H140.549L151.955 110.119V112.912L144.273 118.732H149.162C149.395 118.499 151.49 116.87 151.722 116.87C152.188 116.637 151.955 116.637 152.188 116.637V118.732H155.68V77.2971V77.2971ZM102.839 89.1688L117.504 78.2282L114.245 83.5821L99.5797 94.29L102.839 89.1688ZM95.3896 101.273L109.822 90.3327C109.822 90.5655 109.822 90.5655 109.589 90.5655L106.563 95.6867L92.1307 106.395L95.3896 101.273ZM136.359 111.981V109.188L151.722 97.5489L151.955 97.3161V100.11L136.359 111.981ZM142.877 97.7817C143.11 97.7817 143.11 97.5489 142.877 97.5489V97.7817ZM84.449 118.499L87.7079 113.378L102.14 102.437V102.67L98.8813 107.791L84.449 118.499ZM136.359 118.266V115.473L151.955 103.834V106.627L136.359 118.266ZM77.9311 128.974L80.0261 125.483L94.6913 114.542C94.4585 115.007 93.5274 116.404 93.5274 116.637C93.0618 117.335 92.829 118.034 92.829 118.732L77.2328 130.371C77.2328 129.905 77.6983 129.207 77.9311 128.974V128.974ZM77 134.328L92.829 122.456V125.25L77 137.122V134.328ZM77 140.613L92.829 128.974V131.768L77 143.407V140.613ZM77 149.924V147.131L92.829 135.259V138.053L77 149.924ZM77 153.416L92.829 141.777V144.57L77 156.209V153.416ZM77 159.934L92.829 148.062V150.856L77 162.727V159.934ZM77.6983 165.986L93.5274 153.882C93.7602 153.882 95.1568 155.278 95.3896 155.511L78.8622 167.848C78.8622 167.848 77.6983 166.219 77.6983 165.986V165.986ZM81.8884 169.012L99.1141 156.209H102.606L85.3801 169.012H81.8884V169.012ZM90.2685 169.012L107.494 156.209H111.219L93.9929 169.012H90.2685ZM98.8813 169.012L116.107 156.209H119.832L102.606 169.012H98.8813ZM111.219 169.012H107.494L124.487 156.209H128.444L111.219 169.012ZM119.832 169.012H116.107L133.1 156.209H136.824L119.832 169.012ZM124.72 169.012L141.713 156.209H145.437L128.444 169.012H124.72ZM147.532 161.331V161.098V161.331ZM136.359 173.668V173.202L143.11 168.081V170.875L127.28 182.746V181.582V180.419L127.513 179.953L135.195 173.901C135.661 173.668 135.661 173.668 136.359 173.668V173.668ZM127.28 186.238L143.11 174.599V177.392L127.28 189.264V186.238V186.238ZM127.28 192.756L143.11 180.884V183.678L127.28 195.549V192.756V192.756ZM127.28 202.067V199.274L143.11 187.402V190.195L127.28 202.067ZM127.979 205.326L144.041 192.989C144.506 193.687 144.972 194.385 145.437 194.851L129.143 207.188C129.143 207.188 128.91 206.723 128.677 206.723C128.677 206.49 128.444 206.024 128.444 206.024C128.212 205.792 127.979 205.326 127.979 205.326ZM132.169 208.585V208.352L149.162 195.782H152.653L135.428 208.585H132.169V208.585ZM144.041 208.585H140.316L157.542 195.782H161.266L144.041 208.585ZM148.929 208.585L165.922 195.782H169.646L152.653 208.585H148.929ZM157.542 208.585L174.535 195.782H176.63V196.946L161.266 208.585H157.542V208.585ZM169.879 208.585H166.155L176.63 200.67C176.63 200.903 176.63 203.464 176.397 203.464L169.879 208.585Z" fill="url(#paint1_linear_59_94)"/>
<path d="M32.0094 271.534C33.0693 271.284 33.9422 271.409 33.4434 273.092L32.3835 276.896C31.947 278.392 31.1365 278.392 30.0765 278.08C28.8919 277.706 27.5202 277.581 25.4627 277.519C25.525 282.258 25.5874 285.001 25.7121 287.37C25.7744 288.617 18.2925 289.241 18.4172 288.368C18.7913 285.5 19.1031 282.445 19.2278 277.457H2.14408C1.52059 277.457 -0.225193 273.716 0.024204 273.404L21.597 243.227C22.1582 242.479 26.7097 243.788 26.7097 244.162C25.9615 248.028 25.4627 252.33 25.4627 257.38V272.469C27.832 272.344 29.7024 272.095 32.0094 271.534V271.534ZM18.2302 253.39L4.5757 272.531H19.2901V253.515C19.2901 252.766 18.729 252.704 18.2302 253.39V253.39ZM77.0068 288.804C62.043 288.804 50.0096 281.634 50.0096 266.92C50.0096 254.824 58.302 243.165 75.3857 243.165C82.8676 243.165 88.6661 245.347 87.9803 247.342L87.1697 249.774C85.2369 255.385 82.2441 247.778 71.146 247.778C61.4195 247.778 56.3069 253.639 56.3069 263.491C56.3069 278.143 66.7192 285.126 75.1987 285.126C79.6255 285.126 81.87 282.943 81.87 279.078V277.893C81.87 273.155 79.9372 271.596 74.8869 270.848C74.0764 270.723 74.6375 268.603 76.0092 268.603H91.2848C92.9682 268.603 92.1577 270.661 91.4718 270.848C89.352 271.409 87.8556 272.781 87.8556 276.771V279.015C87.8556 280.699 87.9179 281.884 89.1026 283.941C85.3616 285.936 78.5655 288.804 77.0068 288.804V288.804ZM154.239 285.812C155.112 285.936 154.862 287.807 154.114 287.807H138.589C137.779 287.807 137.654 285.936 138.402 285.812C140.771 285.437 143.141 284.502 140.834 279.078L139.898 276.896C139.337 275.462 137.966 275.399 135.97 275.399H123.002C121.131 275.399 119.76 275.462 119.199 276.896L118.326 279.078C116.019 284.627 118.388 285.375 121.505 285.812C122.254 285.936 122.129 287.807 121.318 287.807H108.163C107.352 287.807 107.165 285.936 107.976 285.812C110.594 285.437 112.091 284.44 114.398 279.078L124.935 255.073C127.366 249.587 128.114 246.843 128.114 244.474C128.114 244.1 132.541 243.102 132.728 243.539L147.942 279.015C150.248 284.44 151.745 285.437 154.239 285.812V285.812ZM135.97 272.219C136.906 272.219 137.966 272.095 137.592 271.284L129.611 252.33L121.63 271.284C121.256 272.095 122.254 272.219 123.189 272.219H135.97ZM224.238 285.874C224.737 285.936 224.363 287.807 223.864 287.807H208.776C208.339 287.807 207.965 285.936 208.402 285.874C210.708 285.5 212.766 284.44 212.579 280.262L211.457 257.692L200.546 279.888C199.423 282.195 198.301 285.001 198.114 286.123C197.989 286.809 196.929 287.246 196.056 287.246C195.184 287.246 194.685 286.871 194.311 286.123L179.472 257.941L178.536 280.262C178.349 284.44 180.469 285.624 182.714 285.874C183.212 285.936 182.838 287.807 182.402 287.807H169.994C169.496 287.807 169.122 285.936 169.62 285.874C172.301 285.562 174.671 284.627 174.858 280.262L176.728 244.225C176.791 243.289 178.91 243.227 179.409 244.225L197.553 278.517L214.512 244.225C215.011 243.227 217.13 243.289 217.193 244.225L219.063 280.262C219.25 284.627 221.495 285.562 224.238 285.874V285.874ZM239.682 287.931C239.059 287.994 238.809 286.061 239.308 285.936C242.987 285.001 245.792 284.44 245.792 279.826V251.894C245.792 247.716 243.236 246.656 240.493 245.97C239.994 245.846 240.243 243.975 240.867 244.038C245.418 244.412 252.09 244.412 256.704 244.412C262.377 244.412 266.617 244.162 271.543 244.038C272.977 244.038 272.977 245.035 272.665 246.407L271.106 252.33C270.919 253.141 269.423 253.141 269.173 252.33C268.3 249.4 266.305 247.342 258.387 247.342C253.711 247.342 252.277 248.464 252.277 251.894V262.244C252.277 263.865 253.087 264.176 254.334 264.176H255.519C261.068 264.176 265.245 263.802 267.989 261.184C268.55 260.622 269.859 260.747 269.36 261.932L265.682 269.788C265.245 270.848 264.372 270.723 263.687 269.788C262.19 267.855 258.948 267.107 255.02 267.107H254.334C253.087 267.107 252.277 267.419 252.277 269.04V279.826C252.277 283.442 253.898 284.627 259.26 284.627C269.36 284.627 272.603 280.574 274.161 277.956C274.66 277.145 276.156 277.332 276.156 278.517C276.156 281.946 273.538 287.869 269.735 287.931C266.742 287.744 262.751 287.557 257.389 287.557C251.653 287.557 245.418 287.37 239.682 287.931V287.931Z" fill="black"/>
</g>
<defs>
<linearGradient id="paint0_linear_59_94" x1="60" y1="20" x2="217" y2="20" gradientUnits="userSpaceOnUse">
<stop stop-color="#7D141D"/>
<stop offset="1" stop-color="#FF1E27"/>
</linearGradient>
<linearGradient id="paint1_linear_59_94" x1="77" y1="34" x2="200.839" y2="34" gradientUnits="userSpaceOnUse">
<stop stop-color="#7D141D"/>
<stop offset="1" stop-color="#FF1E27"/>
</linearGradient>
<clipPath id="clip0_59_94">
<rect width="276.157" height="288.804" fill="white"/>
</clipPath>
</defs>
</svg>
